<svg xmlns="http://www.w3.org/2000/svg" width="155.38" height="35" viewBox="0 0 155.38 35"><rect class="svg__rect" x="0" y="0" width="155.38" height="35" fill="#3E81A9"/><rect class="svg__rect" x="155.38" y="0" width="0" height="35" fill="#389AD5"/><path class="svg__text" d="M19.80 22L14.22 22L14.22 13.47L19.75 13.47L19.75 14.66L15.70 14.66L15.70 17.02L19.20 17.02L19.20 18.19L15.70 18.19L15.70 20.82L19.80 20.82L19.80 22ZM24.77 22L23.23 22L26.45 13.47L27.78 13.47L31.01 22L29.46 22L28.77 20.01L25.46 20.01L24.77 22ZM27.11 15.28L25.88 18.82L28.35 18.82L27.11 15.28ZM36.45 22L34.97 22L34.97 13.47L37.97 13.47Q39.44 13.47 40.24 14.13Q41.05 14.79 41.05 16.05L41.05 16.05Q41.05 16.90 40.63 17.48Q40.22 18.06 39.48 18.37L39.48 18.37L41.40 21.92L41.40 22L39.81 22L38.10 18.71L36.45 18.71L36.45 22ZM36.45 14.66L36.45 17.52L37.97 17.52Q38.72 17.52 39.14 17.15Q39.56 16.77 39.56 16.11L39.56 16.11Q39.56 15.43 39.18 15.05Q38.79 14.68 38.01 14.66L38.01 14.66L36.45 14.66ZM50.80 22L45.44 22L45.44 13.47L46.92 13.47L46.92 20.82L50.80 20.82L50.80 22ZM56.96 18.86L54.10 13.47L55.74 13.47L57.71 17.51L59.67 13.47L61.31 13.47L58.45 18.86L58.45 22L56.96 22L56.96 18.86ZM67.85 18.95L64.77 18.95L64.77 17.80L67.85 17.80L67.85 18.95ZM71.88 18.19L71.88 18.19L71.88 17.39Q71.88 16.19 72.31 15.27Q72.73 14.35 73.53 13.85Q74.33 13.35 75.38 13.35L75.38 13.35Q76.80 13.35 77.66 14.12Q78.52 14.89 78.66 16.29L78.66 16.29L77.18 16.29Q77.08 15.37 76.65 14.96Q76.22 14.55 75.38 14.55L75.38 14.55Q74.42 14.55 73.90 15.26Q73.38 15.96 73.37 17.33L73.37 17.33L73.37 18.09Q73.37 19.47 73.86 20.20Q74.36 20.92 75.31 20.92L75.31 20.92Q76.19 20.92 76.63 20.53Q77.06 20.14 77.18 19.22L77.18 19.22L78.66 19.22Q78.53 20.59 77.65 21.35Q76.77 22.12 75.31 22.12L75.31 22.12Q74.29 22.12 73.52 21.63Q72.74 21.15 72.32 20.26Q71.90 19.37 71.88 18.19ZM84.45 22L82.97 22L82.97 13.47L84.45 13.47L84.45 17.02L88.27 17.02L88.27 13.47L89.74 13.47L89.74 22L88.27 22L88.27 18.21L84.45 18.21L84.45 22ZM95.26 22L93.72 22L96.95 13.47L98.28 13.47L101.50 22L99.96 22L99.26 20.01L95.96 20.01L95.26 22ZM97.61 15.28L96.37 18.82L98.84 18.82L97.61 15.28ZM106.94 22L105.46 22L105.46 13.47L106.94 13.47L110.76 19.54L110.76 13.47L112.23 13.47L112.23 22L110.74 22L106.94 15.95L106.94 22ZM118.45 22L116.97 22L116.97 13.47L118.45 13.47L122.26 19.54L122.26 13.47L123.73 13.47L123.73 22L122.25 22L118.45 15.95L118.45 22ZM134.05 22L128.47 22L128.47 13.47L134.01 13.47L134.01 14.66L129.96 14.66L129.96 17.02L133.46 17.02L133.46 18.19L129.96 18.19L129.96 20.82L134.05 20.82L134.05 22ZM143.60 22L138.25 22L138.25 13.47L139.73 13.47L139.73 20.82L143.60 20.82L143.60 22Z" fill="#FFFFFF"/><path class="svg__text" d="" fill="#FFFFFF" x="168.38"/></svg>