<svg xmlns="http://www.w3.org/2000/svg" width="173.81" height="35" viewBox="0 0 173.81 35"><rect class="svg__rect" x="0" y="0" width="173.81" height="35" fill="#3E81A9"/><rect class="svg__rect" x="173.81" y="0" width="0" height="35" fill="#389AD5"/><path class="svg__text" d="M19.80 22L14.22 22L14.22 13.47L19.75 13.47L19.75 14.66L15.70 14.66L15.70 17.02L19.20 17.02L19.20 18.19L15.70 18.19L15.70 20.82L19.80 20.82L19.80 22ZM24.77 22L23.23 22L26.45 13.47L27.78 13.47L31.01 22L29.46 22L28.77 20.01L25.46 20.01L24.77 22ZM27.11 15.28L25.88 18.82L28.35 18.82L27.11 15.28ZM36.45 22L34.97 22L34.97 13.47L37.97 13.47Q39.44 13.47 40.24 14.13Q41.05 14.79 41.05 16.05L41.05 16.05Q41.05 16.90 40.63 17.48Q40.22 18.06 39.48 18.37L39.48 18.37L41.40 21.92L41.40 22L39.81 22L38.10 18.71L36.45 18.71L36.45 22ZM36.45 14.66L36.45 17.52L37.97 17.52Q38.72 17.52 39.14 17.15Q39.56 16.77 39.56 16.11L39.56 16.11Q39.56 15.43 39.18 15.05Q38.79 14.68 38.01 14.66L38.01 14.66L36.45 14.66ZM50.80 22L45.44 22L45.44 13.47L46.92 13.47L46.92 20.82L50.80 20.82L50.80 22ZM56.96 18.86L54.10 13.47L55.74 13.47L57.71 17.51L59.67 13.47L61.31 13.47L58.45 18.86L58.45 22L56.96 22L56.96 18.86ZM67.85 18.95L64.77 18.95L64.77 17.80L67.85 17.80L67.85 18.95ZM71.72 19.42L71.72 19.42L73.20 19.42Q73.20 20.15 73.68 20.55Q74.16 20.95 75.06 20.95L75.06 20.95Q75.83 20.95 76.22 20.63Q76.61 20.32 76.61 19.80L76.61 19.80Q76.61 19.24 76.21 18.94Q75.82 18.63 74.79 18.32Q73.75 18.01 73.14 17.63L73.14 17.63Q71.98 16.90 71.98 15.72L71.98 15.72Q71.98 14.69 72.82 14.02Q73.66 13.35 75.00 13.35L75.00 13.35Q75.89 13.35 76.59 13.68Q77.29 14.01 77.69 14.61Q78.08 15.22 78.08 15.96L78.08 15.96L76.61 15.96Q76.61 15.29 76.19 14.91Q75.77 14.54 74.99 14.54L74.99 14.54Q74.26 14.54 73.86 14.85Q73.46 15.16 73.46 15.71L73.46 15.71Q73.46 16.18 73.89 16.50Q74.33 16.81 75.32 17.10Q76.32 17.40 76.92 17.78Q77.53 18.16 77.81 18.65Q78.09 19.13 78.09 19.79L78.09 19.79Q78.09 20.86 77.27 21.49Q76.46 22.12 75.06 22.12L75.06 22.12Q74.13 22.12 73.35 21.77Q72.58 21.43 72.15 20.83Q71.72 20.22 71.72 19.42ZM82.24 19.16L82.24 19.16L82.24 13.47L83.72 13.47L83.72 19.18Q83.72 20.03 84.15 20.48Q84.59 20.93 85.43 20.93L85.43 20.93Q87.14 20.93 87.14 19.13L87.14 19.13L87.14 13.47L88.62 13.47L88.62 19.17Q88.62 20.53 87.75 21.32Q86.88 22.12 85.43 22.12L85.43 22.12Q83.97 22.12 83.11 21.33Q82.24 20.55 82.24 19.16ZM94.67 22L93.19 22L93.19 13.47L96.45 13.47Q97.88 13.47 98.72 14.21Q99.56 14.96 99.56 16.18L99.56 16.18Q99.56 17.44 98.74 18.13Q97.92 18.83 96.44 18.83L96.44 18.83L94.67 18.83L94.67 22ZM94.67 14.66L94.67 17.64L96.45 17.64Q97.24 17.64 97.66 17.27Q98.08 16.90 98.08 16.19L98.08 16.19Q98.08 15.50 97.65 15.09Q97.23 14.68 96.49 14.66L96.49 14.66L94.67 14.66ZM105.33 22L103.85 22L103.85 13.47L107.11 13.47Q108.54 13.47 109.38 14.21Q110.22 14.96 110.22 16.18L110.22 16.18Q110.22 17.44 109.40 18.13Q108.58 18.83 107.09 18.83L107.09 18.83L105.33 18.83L105.33 22ZM105.33 14.66L105.33 17.64L107.11 17.64Q107.90 17.64 108.32 17.27Q108.73 16.90 108.73 16.19L108.73 16.19Q108.73 15.50 108.31 15.09Q107.89 14.68 107.15 14.66L107.15 14.66L105.33 14.66ZM114.24 18.00L114.24 18.00L114.24 17.52Q114.24 16.28 114.68 15.32Q115.12 14.37 115.93 13.86Q116.73 13.35 117.78 13.35Q118.82 13.35 119.62 13.85Q120.43 14.35 120.87 15.29Q121.31 16.23 121.31 17.48L121.31 17.48L121.31 17.96Q121.31 19.21 120.88 20.16Q120.45 21.10 119.64 21.61Q118.84 22.12 117.79 22.12L117.79 22.12Q116.75 22.12 115.94 21.61Q115.13 21.10 114.68 20.17Q114.24 19.23 114.24 18.00ZM115.72 17.46L115.72 17.96Q115.72 19.36 116.27 20.13Q116.81 20.90 117.79 20.90L117.79 20.90Q118.77 20.90 119.30 20.15Q119.83 19.40 119.83 17.96L119.83 17.96L119.83 17.51Q119.83 16.09 119.30 15.34Q118.76 14.58 117.78 14.58L117.78 14.58Q116.81 14.58 116.27 15.33Q115.73 16.09 115.72 17.46L115.72 17.46ZM127.26 22L125.78 22L125.78 13.47L128.78 13.47Q130.26 13.47 131.06 14.13Q131.86 14.79 131.86 16.05L131.86 16.05Q131.86 16.90 131.45 17.48Q131.04 18.06 130.30 18.37L130.30 18.37L132.21 21.92L132.21 22L130.63 22L128.91 18.71L127.26 18.71L127.26 22ZM127.26 14.66L127.26 17.52L128.79 17.52Q129.54 17.52 129.96 17.15Q130.38 16.77 130.38 16.11L130.38 16.11Q130.38 15.43 129.99 15.05Q129.60 14.68 128.83 14.66L128.83 14.66L127.26 14.66ZM137.94 14.66L135.30 14.66L135.30 13.47L142.07 13.47L142.07 14.66L139.41 14.66L139.41 22L137.94 22L137.94 14.66ZM151.40 22L145.82 22L145.82 13.47L151.36 13.47L151.36 14.66L147.31 14.66L147.31 17.02L150.81 17.02L150.81 18.19L147.31 18.19L147.31 20.82L151.40 20.82L151.40 22ZM157.08 22L155.60 22L155.60 13.47L158.60 13.47Q160.07 13.47 160.88 14.13Q161.68 14.79 161.68 16.05L161.68 16.05Q161.68 16.90 161.27 17.48Q160.85 18.06 160.12 18.37L160.12 18.37L162.03 21.92L162.03 22L160.44 22L158.73 18.71L157.08 18.71L157.08 22ZM157.08 14.66L157.08 17.52L158.60 17.52Q159.35 17.52 159.78 17.15Q160.20 16.77 160.20 16.11L160.20 16.11Q160.20 15.43 159.81 15.05Q159.42 14.68 158.64 14.66L158.64 14.66L157.08 14.66Z" fill="#FFFFFF"/><path class="svg__text" d="" fill="#FFFFFF" x="186.81"/></svg>