<svg xmlns="http://www.w3.org/2000/svg" width="232.01" height="35" viewBox="0 0 232.01 35"><rect class="svg__rect" x="0" y="0" width="126.13" height="35" fill="#F33131"/><rect class="svg__rect" x="124.13" y="0" width="107.88" height="35" fill="#389AD5"/><path class="svg__text" d="M13.78 19.42L13.78 19.42L15.27 19.42Q15.27 20.15 15.75 20.55Q16.23 20.95 17.12 20.95L17.12 20.95Q17.90 20.95 18.29 20.63Q18.68 20.32 18.68 19.80L18.68 19.80Q18.68 19.24 18.28 18.94Q17.89 18.63 16.85 18.32Q15.82 18.01 15.21 17.63L15.21 17.63Q14.05 16.90 14.05 15.72L14.05 15.72Q14.05 14.69 14.89 14.02Q15.73 13.35 17.07 13.35L17.07 13.35Q17.96 13.35 18.66 13.68Q19.36 14.01 19.75 14.61Q20.15 15.22 20.15 15.96L20.15 15.96L18.68 15.96Q18.68 15.29 18.26 14.91Q17.84 14.54 17.06 14.54L17.06 14.54Q16.33 14.54 15.93 14.85Q15.53 15.16 15.53 15.71L15.53 15.71Q15.53 16.18 15.96 16.50Q16.40 16.81 17.39 17.10Q18.39 17.40 18.99 17.78Q19.60 18.16 19.88 18.65Q20.16 19.13 20.16 19.79L20.16 19.79Q20.16 20.86 19.34 21.49Q18.52 22.12 17.12 22.12L17.12 22.12Q16.20 22.12 15.42 21.77Q14.64 21.43 14.21 20.83Q13.78 20.22 13.78 19.42ZM24.31 19.16L24.31 19.16L24.31 13.47L25.79 13.47L25.79 19.18Q25.79 20.03 26.22 20.48Q26.66 20.93 27.50 20.93L27.50 20.93Q29.21 20.93 29.21 19.13L29.21 19.13L29.21 13.47L30.69 13.47L30.69 19.17Q30.69 20.53 29.82 21.32Q28.95 22.12 27.50 22.12L27.50 22.12Q26.04 22.12 25.17 21.33Q24.31 20.55 24.31 19.16ZM36.74 22L35.26 22L35.26 13.47L38.52 13.47Q39.95 13.47 40.79 14.21Q41.63 14.96 41.63 16.18L41.63 16.18Q41.63 17.44 40.81 18.13Q39.99 18.83 38.50 18.83L38.50 18.83L36.74 18.83L36.74 22ZM36.74 14.66L36.74 17.64L38.52 17.64Q39.31 17.64 39.73 17.27Q40.14 16.90 40.14 16.19L40.14 16.19Q40.14 15.50 39.72 15.09Q39.30 14.68 38.56 14.66L38.56 14.66L36.74 14.66ZM47.40 22L45.92 22L45.92 13.47L49.18 13.47Q50.61 13.47 51.45 14.21Q52.29 14.96 52.29 16.18L52.29 16.18Q52.29 17.44 51.47 18.13Q50.64 18.83 49.16 18.83L49.16 18.83L47.40 18.83L47.40 22ZM47.40 14.66L47.40 17.64L49.18 17.64Q49.97 17.64 50.39 17.27Q50.80 16.90 50.80 16.19L50.80 16.19Q50.80 15.50 50.38 15.09Q49.96 14.68 49.22 14.66L49.22 14.66L47.40 14.66ZM56.31 18.00L56.31 18.00L56.31 17.52Q56.31 16.28 56.75 15.32Q57.19 14.37 58.00 13.86Q58.80 13.35 59.84 13.35Q60.89 13.35 61.69 13.85Q62.50 14.35 62.94 15.29Q63.38 16.23 63.38 17.48L63.38 17.48L63.38 17.96Q63.38 19.21 62.95 20.16Q62.52 21.10 61.71 21.61Q60.90 22.12 59.86 22.12L59.86 22.12Q58.82 22.12 58.01 21.61Q57.20 21.10 56.75 20.17Q56.31 19.23 56.31 18.00ZM57.79 17.46L57.79 17.96Q57.79 19.36 58.34 20.13Q58.88 20.90 59.86 20.90L59.86 20.90Q60.84 20.90 61.37 20.15Q61.90 19.40 61.90 17.96L61.90 17.96L61.90 17.51Q61.90 16.09 61.36 15.34Q60.83 14.58 59.84 14.58L59.84 14.58Q58.88 14.58 58.34 15.33Q57.80 16.09 57.79 17.46L57.79 17.46ZM69.33 22L67.85 22L67.85 13.47L70.85 13.47Q72.32 13.47 73.13 14.13Q73.93 14.79 73.93 16.05L73.93 16.05Q73.93 16.90 73.52 17.48Q73.10 18.06 72.37 18.37L72.37 18.37L74.28 21.92L74.28 22L72.69 22L70.98 18.71L69.33 18.71L69.33 22ZM69.33 14.66L69.33 17.52L70.85 17.52Q71.60 17.52 72.03 17.15Q72.45 16.77 72.45 16.11L72.45 16.11Q72.45 15.43 72.06 15.05Q71.67 14.68 70.89 14.66L70.89 14.66L69.33 14.66ZM80.01 14.66L77.37 14.66L77.37 13.47L84.14 13.47L84.14 14.66L81.48 14.66L81.48 22L80.01 22L80.01 14.66ZM93.60 18.00L93.60 18.00L93.60 17.52Q93.60 16.28 94.04 15.32Q94.48 14.37 95.29 13.86Q96.10 13.35 97.14 13.35Q98.18 13.35 98.99 13.85Q99.79 14.35 100.23 15.29Q100.67 16.23 100.68 17.48L100.68 17.48L100.68 17.96Q100.68 19.21 100.24 20.16Q99.81 21.10 99.01 21.61Q98.20 22.12 97.15 22.12L97.15 22.12Q96.11 22.12 95.30 21.61Q94.49 21.10 94.05 20.17Q93.61 19.23 93.60 18.00ZM95.08 17.46L95.08 17.96Q95.08 19.36 95.63 20.13Q96.18 20.90 97.15 20.90L97.15 20.90Q98.14 20.90 98.67 20.15Q99.20 19.40 99.20 17.96L99.20 17.96L99.20 17.51Q99.20 16.09 98.66 15.34Q98.12 14.58 97.14 14.58L97.14 14.58Q96.18 14.58 95.64 15.33Q95.09 16.09 95.08 17.46L95.08 17.46ZM106.63 22L105.14 22L105.14 13.47L106.63 13.47L110.44 19.54L110.44 13.47L111.91 13.47L111.91 22L110.43 22L106.63 15.95L106.63 22Z" fill="#FFFFFF"/><path class="svg__text" d="M140.70 22L138.32 22L138.32 13.60L142.16 13.60Q143.30 13.60 144.14 13.98Q144.98 14.35 145.44 15.06Q145.89 15.76 145.89 16.71L145.89 16.71Q145.89 17.66 145.44 18.35Q144.98 19.05 144.14 19.42Q143.30 19.80 142.16 19.80L142.16 19.80L140.70 19.80L140.70 22ZM140.70 15.47L140.70 17.93L142.02 17.93Q142.75 17.93 143.12 17.61Q143.49 17.29 143.49 16.71L143.49 16.71Q143.49 16.12 143.12 15.80Q142.75 15.47 142.02 15.47L142.02 15.47L140.70 15.47ZM152.06 22L149.64 22L153.35 13.60L155.69 13.60L159.41 22L156.94 22L156.28 20.37L152.73 20.37L152.06 22ZM154.50 15.93L153.42 18.61L155.58 18.61L154.50 15.93ZM165.35 15.48L162.77 15.48L162.77 13.60L170.29 13.60L170.29 15.48L167.73 15.48L167.73 22L165.35 22L165.35 15.48ZM177.04 22L174.66 22L174.66 13.60L178.51 13.60Q179.65 13.60 180.49 13.98Q181.33 14.35 181.78 15.06Q182.24 15.76 182.24 16.71L182.24 16.71Q182.24 17.62 181.81 18.30Q181.38 18.98 180.59 19.36L180.59 19.36L182.40 22L179.86 22L178.34 19.77L177.04 19.77L177.04 22ZM177.04 15.47L177.04 17.93L178.36 17.93Q179.09 17.93 179.47 17.61Q179.84 17.29 179.84 16.71L179.84 16.71Q179.84 16.12 179.47 15.79Q179.09 15.47 178.36 15.47L178.36 15.47L177.04 15.47ZM193.77 22L187.03 22L187.03 13.60L193.62 13.60L193.62 15.44L189.38 15.44L189.38 16.85L193.11 16.85L193.11 18.63L189.38 18.63L189.38 20.17L193.77 20.17L193.77 22ZM198.15 17.80L198.15 17.80Q198.15 16.55 198.75 15.55Q199.35 14.56 200.42 14.00Q201.48 13.43 202.81 13.43L202.81 13.43Q204.14 13.43 205.21 14.00Q206.27 14.56 206.88 15.55Q207.48 16.55 207.48 17.80L207.48 17.80Q207.48 19.05 206.88 20.04Q206.27 21.04 205.21 21.60Q204.15 22.17 202.81 22.17L202.81 22.17Q201.48 22.17 200.42 21.60Q199.35 21.04 198.75 20.04Q198.15 19.05 198.15 17.80ZM200.54 17.80L200.54 17.80Q200.54 18.51 200.85 19.05Q201.15 19.60 201.66 19.90Q202.18 20.20 202.81 20.20L202.81 20.20Q203.45 20.20 203.97 19.90Q204.48 19.60 204.78 19.05Q205.08 18.51 205.08 17.80L205.08 17.80Q205.08 17.09 204.78 16.54Q204.48 16 203.97 15.70Q203.45 15.40 202.81 15.40L202.81 15.40Q202.17 15.40 201.66 15.70Q201.15 16 200.85 16.54Q200.54 17.09 200.54 17.80ZM214.54 22L212.21 22L212.21 13.60L214.17 13.60L217.88 18.07L217.88 13.60L220.20 13.60L220.20 22L218.25 22L214.54 17.52L214.54 22Z" fill="#FFFFFF" x="137.13"/></svg>